HIERARCHY
ROOT Hips
{
 OFFSET 0.000000 0.000000 0.000000
 CHANNELS 6 Xposition Yposition Zposition Yrotation Xrotation Zrotation
 JOINT Chest
 {
  OFFSET 0.000000 9.585900 0.002600
  CHANNELS 3 Yrotation Xrotation Zrotation
  JOINT Chest2
  {
   OFFSET 0.000000 9.601200 -0.005300
   CHANNELS 3 Yrotation Xrotation Zrotation
   JOINT Chest3
   {
    OFFSET 0.000000 9.561800 0.000000
    CHANNELS 3 Yrotation Xrotation Zrotation
    JOINT Chest4
    {
     OFFSET 0.000000 9.552100 0.000000
     CHANNELS 3 Yrotation Xrotation Zrotation
     JOINT Neck
     {
      OFFSET 0.000000 14.453000 0.000000
      CHANNELS 3 Yrotation Xrotation Zrotation
      JOINT Head
      {
       OFFSET 0.000000 8.936500 -0.011300
       CHANNELS 3 Yrotation Xrotation Zrotation
       End Site
       {
        OFFSET 0.000000 17.073600 -0.006000
       }
      }
     }
     JOINT RightCollar
     {
      OFFSET -2.921100 9.558500 0.000000
      CHANNELS 3 Yrotation Xrotation Zrotation
      JOINT RightShoulder
      {
       OFFSET -13.519700 0.000000 0.000000
       CHANNELS 3 Yrotation Xrotation Zrotation
       JOINT RightElbow
       {
        OFFSET 0.000000 -29.696600 0.000000
        CHANNELS 3 Yrotation Xrotation Zrotation
        JOINT RightWrist
        {
         OFFSET 0.000000 -24.004700 0.000000
         CHANNELS 3 Yrotation Xrotation Zrotation
         End Site
         {
          OFFSET 0.000000 -17.728500 0.000000
         }
        }
       }
      }
     }
     JOINT LeftCollar
     {
      OFFSET 2.921100 9.558500 0.000000
      CHANNELS 3 Yrotation Xrotation Zrotation
      JOINT LeftShoulder
      {
       OFFSET 13.519700 0.000000 0.000000
       CHANNELS 3 Yrotation Xrotation Zrotation
       JOINT LeftElbow
       {
        OFFSET 0.000000 -29.696600 0.000000
        CHANNELS 3 Yrotation Xrotation Zrotation
        JOINT LeftWrist
        {
         OFFSET 0.000000 -24.004700 0.000000
         CHANNELS 3 Yrotation Xrotation Zrotation
         End Site
         {
          OFFSET 0.000000 -17.728500 0.000000
         }
        }
       }
      }
     }
    }
   }
  }
 }
 JOINT RightHip
 {
  OFFSET -7.771700 -0.012900 -0.001300
  CHANNELS 3 Yrotation Xrotation Zrotation
  JOINT RightKnee
  {
   OFFSET 0.000000 -40.869800 0.001200
   CHANNELS 3 Yrotation Xrotation Zrotation
   JOINT RightAnkle
   {
    OFFSET 0.000000 -39.717900 0.002100
    CHANNELS 3 Yrotation Xrotation Zrotation
    JOINT RightToe
    {
     OFFSET 0.000000 -4.965400 11.033500
     CHANNELS 3 Yrotation Xrotation Zrotation
     End Site
     {
      OFFSET 0.000000 -1.423100 5.872300
     }
    }
   }
  }
 }
 JOINT LeftHip
 {
  OFFSET 7.771700 -0.012900 -0.001300
  CHANNELS 3 Yrotation Xrotation Zrotation
  JOINT LeftKnee
  {
   OFFSET 0.000000 -40.869800 0.001200
   CHANNELS 3 Yrotation Xrotation Zrotation
   JOINT LeftAnkle
   {
    OFFSET 0.000000 -39.717900 0.002100
    CHANNELS 3 Yrotation Xrotation Zrotation
    JOINT LeftToe
    {
     OFFSET 0.000000 -4.965400 11.033500
     CHANNELS 3 Yrotation Xrotation Zrotation
     End Site
     {
      OFFSET 0.000000 -1.423100 5.872300
     }
    }
   }
  }
 }
}
MOTION
Frames: 6
Frame Time: 0.008333
0.000000 85.388000 0.000000 0.000000 -5.767877 0.000000 0.000000 11.653817 0.000000 0.000000 -5.885947 0.000000 0.000000 -0.000000 0.000000 0.000000 -0.000000 0.000000 0.000000 12.528835 0.000000 0.000000 0.711642 0.000000 0.000000 -0.000000 0.000000 0.000000 0.000000 -90.000000 0.000000 -2.309062 0.000000 0.000000 2.309062 0.000000 0.000000 -0.000000 0.000000 0.000000 -0.000000 90.000000 0.000000 -2.309062 0.000000 0.000000 2.309062 0.000000 0.000000 8.520406 0.000000 0.000000 1.905762 0.000000 -0.000000 -4.658285 0.000000 0.000000 -0.000000 0.000000 0.000000 8.520406 0.000000 0.000000 1.905762 0.000000 -0.000000 -4.658285 0.000000 0.000000 -0.000000 0.000000
-83.335207 49.191035 19.930661 -179.304290 -29.692181 -3.940752 0.678438 19.632329 2.298424 0.089178 2.426427 0.259364 0.085518 3.948931 0.414768 0.586011 16.945937 1.867547 11.615568 15.622292 -3.094001 22.687578 -5.334302 -9.801362 -3.092748 -3.964076 -3.872876 -10.109347 -5.715882 -10.548039 -61.202469 -52.631981 96.996807 1.116095 -2.035898 -12.225654 -0.674509 -3.611646 3.672589 14.384306 -5.994476 12.736016 78.753700 -44.197055 -103.699246 15.307125 -7.018785 23.486946 1.827462 -54.296040 -12.740878 -163.798533 79.895502 -151.848431 -26.422555 -4.084929 -1.679468 -0.315704 -11.237993 3.045965 -14.517422 -56.776312 16.459679 -71.907655 65.568471 -77.578093 30.807634 6.802579 16.517351 -0.022471 -0.207487 0.033665
-83.347644 49.190493 19.937971 -179.203422 -29.636691 -3.970916 0.623796 19.605838 2.299133 0.087888 2.425597 0.261756 0.084857 3.947011 0.417363 0.584664 16.941653 1.878844 11.701194 15.675285 -3.081925 22.832823 -5.223725 -9.795986 -3.083409 -3.890088 -3.836960 -10.194389 -5.838142 -10.536910 -61.317475 -52.300700 97.070289 1.006527 -2.093609 -12.433460 -0.626339 -3.520008 3.648485 14.500751 -6.141922 12.673812 79.021518 -44.041119 -103.919056 15.392035 -7.224911 23.479944 1.864921 -54.327389 -12.818817 -163.597489 79.884758 -151.621966 -26.456580 -4.075592 -1.646282 -0.300333 -11.230073 3.053799 -14.577037 -56.832143 16.432916 -71.817209 65.551838 -77.510364 30.844795 6.822070 16.569570 -0.051684 -0.208052 0.020238
-83.355269 49.193518 19.941218 -179.160829 -29.616829 -4.010765 0.676901 19.635040 2.364789 0.047802 2.399144 0.254560 0.065110 3.933848 0.414196 0.603701 16.946776 1.895368 11.722042 15.695802 -3.081867 23.021621 -5.075305 -9.768719 -3.078198 -3.812169 -3.800039 -10.322088 -5.999175 -10.488831 -61.298637 -51.923028 97.084701 0.884365 -2.175041 -12.630512 -0.574020 -3.431333 3.617888 14.606353 -6.287660 12.612245 79.262615 -43.883580 -104.142023 15.484241 -7.438620 23.405445 1.901439 -54.326430 -12.830746 -163.396376 79.875327 -151.394756 -26.450683 -4.062305 -1.629550 -0.278768 -11.227222 3.066435 -14.630259 -56.846275 16.456949 -71.806926 65.549731 -77.493686 30.839727 6.820352 16.566124 -0.049507 -0.198869 0.020238
-83.374578 49.196374 19.944434 -179.087764 -29.597434 -4.002950 0.641406 19.645182 2.342280 0.047389 2.397578 0.256206 0.073997 3.936191 0.419562 0.592502 16.936428 1.905111 11.823850 15.774482 -3.056659 23.108731 -4.970072 -9.751820 -3.076473 -3.737459 -3.759668 -10.397701 -6.120885 -10.493143 -61.369026 -51.478151 97.183623 0.755253 -2.278683 -12.825542 -0.523857 -3.348940 3.586352 14.703014 -6.428856 12.548502 79.483506 -43.733325 -104.365951 15.579217 -7.638846 23.250677 1.941648 -54.338040 -12.899806 -163.108025 79.847771 -151.178267 -26.412204 -4.018043 -1.521293 -0.336541 -11.226946 3.052857 -14.562956 -56.874429 16.330139 -71.757531 65.540091 -77.418982 30.824020 6.843928 16.577701 -0.034669 -0.196006 0.020589
-83.395318 49.196313 19.953196 -179.003928 -29.542499 -3.996295 0.597919 19.621018 2.317604 0.047313 2.396112 0.257968 0.083569 3.939472 0.425499 0.555277 16.916555 1.903275 11.942917 15.865887 -3.022443 23.178660 -4.862345 -9.729842 -3.053631 -3.656133 -3.716833 -10.485441 -6.243145 -10.493635 -61.405100 -51.018459 97.292446 0.621382 -2.397930 -13.030329 -0.454001 -3.263488 3.560669 14.792129 -6.563947 12.483039 79.682506 -43.591964 -104.589860 15.665420 -7.810601 23.017155 1.975097 -54.381693 -12.992003 -162.963538 79.838067 -151.065201 -26.409037 -4.002782 -1.472031 -0.361696 -11.214163 3.058899 -14.555196 -56.934313 16.240980 -71.607878 65.541888 -77.282266 30.837716 6.901755 16.634366 -0.051889 -0.214126 0.005485
